<svg xmlns="http://www.w3.org/2000/svg" x="0px" y="0px"
width="64" height="64"
viewBox="0 0 172 172"
style=" fill:#000000;"><g fill="none" fill-rule="nonzero" stroke="none" stroke-width="1" stroke-linecap="butt" stroke-linejoin="miter" stroke-miterlimit="10" stroke-dasharray="" stroke-dashoffset="0" font-family="none" font-weight="none" font-size="none" text-anchor="none" style="mix-blend-mode: normal"><path d="M0,172v-172h172v172z" fill="none"></path><g fill="#ef6e25"><path d="M82.56,3.44v61.92h6.88v-61.92zM75.68,14.59313c-31.56469,4.54187 -56.55844,29.52219 -61.11375,61.08687h6.93375c4.44781,-27.76187 26.40469,-49.70531 54.18,-54.13969zM96.32,14.59313v6.94719c27.77531,4.43437 49.73219,26.37781 54.16656,54.13969h6.94719c-4.55531,-31.56469 -29.54906,-56.545 -61.11375,-61.08687zM75.68,49.62469c-12.5775,3.57438 -22.48094,13.49125 -26.05531,26.05531h7.2025c3.13094,-8.76125 10.07813,-15.72187 18.85281,-18.82594zM96.32,49.62469v7.22938c8.77469,3.10406 15.72188,10.06469 18.85281,18.82594h7.2025c-3.57438,-12.56406 -13.47781,-22.48094 -26.05531,-26.05531zM86.01344,75.68c-5.6975,0 -10.33344,4.6225 -10.33344,10.32c0,5.6975 4.63594,10.32 10.33344,10.32c5.6975,0 10.13188,-4.6225 10.13188,-10.32c0,-5.6975 -4.43438,-10.32 -10.13188,-10.32zM3.44,82.56v6.88h61.92v-6.88zM106.64,82.56v6.88h61.92v-6.88zM14.56625,96.32c4.55531,31.56469 29.54906,56.545 61.11375,61.10031v-6.96063c-27.77531,-4.43437 -49.73219,-26.37781 -54.16656,-54.13969zM49.62469,96.32c3.57438,12.56406 13.47781,22.48094 26.05531,26.05531v-7.22938c-8.77469,-3.10406 -15.72187,-10.06469 -18.85281,-18.82594zM115.14594,96.32c-3.10406,8.77469 -10.06469,15.72188 -18.82594,18.85281v7.2025c12.56406,-3.57438 22.48094,-13.47781 26.05531,-26.05531zM150.45969,96.32c-4.43437,27.77531 -26.37781,49.73219 -54.13969,54.16656v6.94719c31.56469,-4.55531 56.545,-29.54906 61.10031,-61.11375zM82.56,106.64v61.92h6.88v-61.92z"></path></g></g></svg>